# xmcd
#
# Track frame offsets:
#	150
#	102799
#	134685
#	141961
#	179455
#	203486
#	266708
#	304540
#
# Disc length: 4467 seconds
#
# Revision: 0
# Processed by: cddbd v1.5.2PL0 Copyright (c) Steve Scherf et al.
# Submitted via: audiograbber 1.83.01
#
DISCID=71117108
DTITLE=Grateful Dead - 93-09-22 Madison Square Garden, New York NY
DYEAR=1900
DGENRE=
TTITLE0=Help On The Way > Slipknot! > Franklin's Tower
TTITLE1=New Minglewood Blues
TTITLE2=Tuning
TTITLE3=Ramble On Rose
TTITLE4=When I Paint My Masterpiece
TTITLE5=Birdsong
TTITLE6=Easy Answers
TTITLE7=Lazy River Road
EXTD=
EXTT0=
EXTT1=
EXTT2=
EXTT3=
EXTT4=
EXTT5=
EXTT6=
EXTT7=
PLAYORDER=
